<svg width="18" height="20" viewBox="0 0 18 20" fill="none" xmlns="http://www.w3.org/2000/svg">
<path d="M1.91667 19.1667C1.38958 19.1667 0.938528 18.9792 0.5635 18.6041C0.188472 18.2291 0.000638889 17.7777 0 17.25V3.83333C0 3.30625 0.187833 2.85519 0.5635 2.48017C0.939167 2.10514 1.39022 1.91731 1.91667 1.91667H2.875V0H4.79167V1.91667H12.4583V0H14.375V1.91667H15.3333C15.8604 1.91667 16.3118 2.1045 16.6875 2.48017C17.0631 2.85583 17.2506 3.30689 17.25 3.83333V17.25C17.25 17.7771 17.0625 18.2285 16.6875 18.6041C16.3124 18.9798 15.8611 19.1673 15.3333 19.1667H1.91667ZM1.91667 17.25H15.3333V7.66667H1.91667V17.25ZM1.91667 5.75H15.3333V3.83333H1.91667V5.75ZM8.625 11.5C8.35347 11.5 8.12603 11.408 7.94267 11.224C7.75931 11.04 7.66731 10.8126 7.66667 10.5417C7.66603 10.2708 7.75803 10.0433 7.94267 9.85933C8.12731 9.67533 8.35475 9.58333 8.625 9.58333C8.89525 9.58333 9.12301 9.67533 9.30829 9.85933C9.49357 10.0433 9.58525 10.2708 9.58333 10.5417C9.58142 10.8126 9.48942 11.0403 9.30733 11.225C9.12525 11.4096 8.89781 11.5013 8.625 11.5ZM4.10933 11.224C3.92533 11.0413 3.83333 10.8138 3.83333 10.5417C3.83333 10.2695 3.92533 10.0421 4.10933 9.85933C4.29333 9.67661 4.52078 9.58461 4.79167 9.58333C5.06256 9.58206 5.29032 9.67406 5.47496 9.85933C5.6596 10.0446 5.75128 10.2721 5.75 10.5417C5.74872 10.8113 5.65672 11.039 5.474 11.225C5.29128 11.4109 5.06383 11.5026 4.79167 11.5C4.5195 11.4974 4.29206 11.4054 4.10933 11.224ZM12.4583 11.5C12.1868 11.5 11.9594 11.408 11.776 11.224C11.5926 11.04 11.5006 10.8126 11.5 10.5417C11.4994 10.2708 11.5914 10.0433 11.776 9.85933C11.9606 9.67533 12.1881 9.58333 12.4583 9.58333C12.7286 9.58333 12.9563 9.67533 13.1416 9.85933C13.3269 10.0433 13.4186 10.2708 13.4167 10.5417C13.4148 10.8126 13.3228 11.0403 13.1407 11.225C12.9586 11.4096 12.7311 11.5013 12.4583 11.5ZM8.625 15.3333C8.35347 15.3333 8.12603 15.2413 7.94267 15.0573C7.75931 14.8733 7.66731 14.6459 7.66667 14.375C7.66603 14.1041 7.75803 13.8767 7.94267 13.6927C8.12731 13.5087 8.35475 13.4167 8.625 13.4167C8.89525 13.4167 9.12301 13.5087 9.30829 13.6927C9.49357 13.8767 9.58525 14.1041 9.58333 14.375C9.58142 14.6459 9.48942 14.8737 9.30733 15.0583C9.12525 15.2429 8.89781 15.3346 8.625 15.3333ZM4.10933 15.0573C3.92533 14.8746 3.83333 14.6472 3.83333 14.375C3.83333 14.1028 3.92533 13.8754 4.10933 13.6927C4.29333 13.5099 4.52078 13.4179 4.79167 13.4167C5.06256 13.4154 5.29032 13.5074 5.47496 13.6927C5.6596 13.8779 5.75128 14.1054 5.75 14.375C5.74872 14.6446 5.65672 14.8724 5.474 15.0583C5.29128 15.2442 5.06383 15.3359 4.79167 15.3333C4.5195 15.3308 4.29206 15.2388 4.10933 15.0573ZM12.4583 15.3333C12.1868 15.3333 11.9594 15.2413 11.776 15.0573C11.5926 14.8733 11.5006 14.6459 11.5 14.375C11.4994 14.1041 11.5914 13.8767 11.776 13.6927C11.9606 13.5087 12.1881 13.4167 12.4583 13.4167C12.7286 13.4167 12.9563 13.5087 13.1416 13.6927C13.3269 13.8767 13.4186 14.1041 13.4167 14.375C13.4148 14.6459 13.3228 14.8737 13.1407 15.0583C12.9586 15.2429 12.7311 15.3346 12.4583 15.3333Z" fill="white"/>
</svg>
