<svg width="11" height="14" viewBox="0 0 11 14" fill="none" xmlns="http://www.w3.org/2000/svg">
<path d="M6.27533 6.27533C6.53622 6.014 6.66667 5.7 6.66667 5.33333C6.66667 4.96667 6.53622 4.65289 6.27533 4.392C6.01444 4.13111 5.70044 4.00044 5.33333 4C4.96622 3.99956 4.65244 4.13022 4.392 4.392C4.13156 4.65378 4.00089 4.96756 4 5.33333C3.99911 5.69911 4.12978 6.01311 4.392 6.27533C4.65422 6.53756 4.968 6.668 5.33333 6.66667C5.69867 6.66533 6.01267 6.53489 6.27533 6.27533ZM5.33333 13.3333C3.54444 11.8111 2.20844 10.3973 1.32533 9.092C0.442222 7.78667 0.000444444 6.57822 0 5.46667C0 3.8 0.536222 2.47222 1.60867 1.48333C2.68111 0.494444 3.92267 0 5.33333 0C6.744 0 7.98578 0.494444 9.05867 1.48333C10.1316 2.47222 10.6676 3.8 10.6667 5.46667C10.6667 6.57778 10.2251 7.78622 9.342 9.092C8.45889 10.3978 7.12267 11.8116 5.33333 13.3333Z" fill="white"/>
</svg>
